<?xml version="1.0" encoding="UTF-8" standalone="no"?>
<!-- Created with Inkscape (http://www.inkscape.org/) -->

<svg
   xmlns:dc="http://purl.org/dc/elements/1.1/"
   xmlns:cc="http://creativecommons.org/ns#"
   xmlns:rdf="http://www.w3.org/1999/02/22-rdf-syntax-ns#"
   xmlns:svg="http://www.w3.org/2000/svg"
   xmlns="http://www.w3.org/2000/svg"
   xmlns:sodipodi="http://sodipodi.sourceforge.net/DTD/sodipodi-0.dtd"
   xmlns:inkscape="http://www.inkscape.org/namespaces/inkscape"
   width="40"
   height="40"
   viewBox="0 0 39.999998 39.999998"
   id="svg2"
   version="1.1"
   inkscape:version="0.91 r13725"
   sodipodi:docname="mind.svg"
   inkscape:export-filename="D:\GIT\Body-Syntonic-Story\assets\images\mind.png"
   inkscape:export-xdpi="90"
   inkscape:export-ydpi="90">
  <defs
     id="defs4">
    <marker
       inkscape:stockid="Arrow1Lstart"
       orient="auto"
       refY="0.0"
       refX="0.0"
       id="Arrow1Lstart"
       style="overflow:visible"
       inkscape:isstock="true">
      <path
         id="path4146"
         d="M 0.0,0.0 L 5.0,-5.0 L -12.5,0.0 L 5.0,5.0 L 0.0,0.0 z "
         style="fill-rule:evenodd;stroke:#000000;stroke-width:1pt;stroke-opacity:1;fill:#000000;fill-opacity:1"
         transform="scale(0.8) translate(12.5,0)" />
    </marker>
  </defs>
  <sodipodi:namedview
     id="base"
     pagecolor="#ffffff"
     bordercolor="#666666"
     borderopacity="1.0"
     inkscape:pageopacity="0.0"
     inkscape:pageshadow="2"
     inkscape:zoom="7.9195959"
     inkscape:cx="15.328775"
     inkscape:cy="28.055882"
     inkscape:document-units="px"
     inkscape:current-layer="layer1"
     showgrid="false"
     units="px"
     inkscape:window-width="1920"
     inkscape:window-height="1017"
     inkscape:window-x="-8"
     inkscape:window-y="-8"
     inkscape:window-maximized="1" />
  <metadata
     id="metadata7">
    <rdf:RDF>
      <cc:Work
         rdf:about="">
        <dc:format>image/svg+xml</dc:format>
        <dc:type
           rdf:resource="http://purl.org/dc/dcmitype/StillImage" />
        <dc:title></dc:title>
      </cc:Work>
    </rdf:RDF>
  </metadata>
  <g
     inkscape:label="Layer 1"
     inkscape:groupmode="layer"
     id="layer1"
     transform="translate(0,-1012.3622)">
    <g
       id="g4285"
       transform="translate(58.145196,-2.5668125)"
       style="fill:#ffffff">
      <ellipse
         ry="8.5858555"
         rx="8.9661741"
         cy="-132.06482"
         cx="-1015.3018"
         transform="matrix(-0.0950782,-0.99546981,0.99460043,-0.10377856,0,0)"
         id="path4140-3-0"
         style="opacity:1;fill:#ffffff;fill-opacity:1;stroke:none;stroke-width:1.00001895;stroke-linecap:round;stroke-linejoin:round;stroke-miterlimit:4;stroke-dasharray:none;stroke-dashoffset:0;stroke-opacity:1" />
      <ellipse
         ry="8.8945456"
         rx="8.660038"
         cy="902.81195"
         cx="-467.04352"
         transform="matrix(0.88761451,-0.4605871,0.42904683,0.90328225,0,0)"
         id="path4140-3-2-0"
         style="opacity:1;fill:#ffffff;fill-opacity:1;stroke:none;stroke-width:1.00031006;stroke-linecap:round;stroke-linejoin:round;stroke-miterlimit:4;stroke-dasharray:none;stroke-dashoffset:0;stroke-opacity:1" />
      <ellipse
         ry="8.7499342"
         rx="8.8061247"
         cy="686.98083"
         cx="756.14294"
         transform="matrix(0.63724112,0.77066449,-0.7420656,0.67032727,0,0)"
         id="path4140-3-2-5-6"
         style="opacity:1;fill:#ffffff;fill-opacity:1;stroke:none;stroke-width:1.00047839;stroke-linecap:round;stroke-linejoin:round;stroke-miterlimit:4;stroke-dasharray:none;stroke-dashoffset:0;stroke-opacity:1" />
      <ellipse
         ry="8.6814594"
         rx="8.8736382"
         cy="-473.02643"
         cx="915.20935"
         transform="matrix(-0.48577184,0.87408565,-0.85479091,-0.51897254,0,0)"
         id="path4140-3-2-5-0-3"
         style="opacity:1;fill:#ffffff;fill-opacity:1;stroke:none;stroke-width:1.00036871;stroke-linecap:round;stroke-linejoin:round;stroke-miterlimit:4;stroke-dasharray:none;stroke-dashoffset:0;stroke-opacity:1" />
      <ellipse
         ry="8.7449093"
         rx="8.8111153"
         cy="-614.49451"
         cx="812.85358"
         transform="matrix(-0.62718936,0.77886681,-0.7508199,-0.66050698,0,0)"
         id="path4140-3-2-5-3-3"
         style="opacity:1;fill:#ffffff;fill-opacity:1;stroke:none;stroke-width:1.00047445;stroke-linecap:round;stroke-linejoin:round;stroke-miterlimit:4;stroke-dasharray:none;stroke-dashoffset:0;stroke-opacity:1" />
      <ellipse
         ry="8.7110081"
         rx="8.8446312"
         cy="-614.05157"
         cx="-804.57489"
         transform="matrix(-0.55549838,-0.83151762,0.80775512,-0.58951816,0,0)"
         id="path4140-7"
         style="opacity:1;fill:#ffffff;fill-opacity:1;stroke:none;stroke-width:1.00043058;stroke-linecap:round;stroke-linejoin:round;stroke-miterlimit:4;stroke-dasharray:none;stroke-dashoffset:0;stroke-opacity:1" />
      <ellipse
         ry="5.8715119"
         rx="6.3134537"
         cy="1034.6213"
         cx="-37.249374"
         id="path4283"
         style="opacity:1;fill:#ffffff;fill-opacity:1;stroke:none;stroke-width:1;stroke-linecap:butt;stroke-linejoin:miter;stroke-miterlimit:4;stroke-dasharray:none;stroke-dashoffset:0;stroke-opacity:1" />
    </g>
    <g
       id="g4236">
      <path
         transform="matrix(-0.0950782,-0.99546981,0.99460043,-0.10377856,0,0)"
         sodipodi:open="true"
         d="m -1023.1466,-81.441532 a 8.9661741,8.5858555 0 0 1 9.5366,0.477492 8.9661741,8.5858555 0 0 1 3.678,8.439143 8.9661741,8.5858555 0 0 1 -6.3529,6.827539"
         sodipodi:end="1.289425"
         sodipodi:start="4.2030321"
         sodipodi:ry="8.5858555"
         sodipodi:rx="8.9661741"
         sodipodi:cy="-73.94558"
         sodipodi:cx="-1018.7746"
         sodipodi:type="arc"
         id="path4140-3"
         style="opacity:1;fill:none;fill-opacity:1;stroke:#000000;stroke-width:1.00001895;stroke-linecap:round;stroke-linejoin:round;stroke-miterlimit:4;stroke-dasharray:none;stroke-dashoffset:0;stroke-opacity:1" />
      <path
         transform="matrix(0.88761451,-0.4605871,0.42904683,0.90328225,0,0)"
         sodipodi:open="true"
         d="m -417.61559,919.55302 a 8.660038,8.8945456 0 0 1 9.21101,0.49466 8.660038,8.8945456 0 0 1 3.55242,8.74256 8.660038,8.8945456 0 0 1 -6.136,7.07301"
         sodipodi:end="1.289425"
         sodipodi:start="4.2030321"
         sodipodi:ry="8.8945456"
         sodipodi:rx="8.660038"
         sodipodi:cy="927.31848"
         sodipodi:cx="-413.39282"
         sodipodi:type="arc"
         id="path4140-3-2"
         style="opacity:1;fill:none;fill-opacity:1;stroke:#000000;stroke-width:1.00031006;stroke-linecap:round;stroke-linejoin:round;stroke-miterlimit:4;stroke-dasharray:none;stroke-dashoffset:0;stroke-opacity:1" />
      <path
         transform="matrix(0.63724112,0.77066449,-0.7420656,0.67032727,0,0)"
         sodipodi:open="true"
         d="m 788.94385,632.85353 a 8.8061247,8.7499342 0 0 1 9.3664,0.48662 8.8061247,8.7499342 0 0 1 3.61234,8.60042 8.8061247,8.7499342 0 0 1 -6.23951,6.95801"
         sodipodi:end="1.289425"
         sodipodi:start="4.2030321"
         sodipodi:ry="8.7499342"
         sodipodi:rx="8.8061247"
         sodipodi:cy="640.49274"
         sodipodi:cx="793.23785"
         sodipodi:type="arc"
         id="path4140-3-2-5"
         style="opacity:1;fill:none;fill-opacity:1;stroke:#000000;stroke-width:1.00047839;stroke-linecap:round;stroke-linejoin:round;stroke-miterlimit:4;stroke-dasharray:none;stroke-dashoffset:0;stroke-opacity:1" />
      <path
         transform="matrix(-0.48577184,0.87408565,-0.85479091,-0.51897254,0,0)"
         sodipodi:open="true"
         d="m 878.4871,-530.20729 a 8.8736382,8.6814594 0 0 1 9.43821,0.48281 8.8736382,8.6814594 0 0 1 3.64003,8.53311 8.8736382,8.6814594 0 0 1 -6.28734,6.90357"
         sodipodi:end="1.289425"
         sodipodi:start="4.2030321"
         sodipodi:ry="8.6814594"
         sodipodi:rx="8.8736382"
         sodipodi:cy="-522.62787"
         sodipodi:cx="882.81403"
         sodipodi:type="arc"
         id="path4140-3-2-5-0"
         style="opacity:1;fill:none;fill-opacity:1;stroke:#000000;stroke-width:1.00036871;stroke-linecap:round;stroke-linejoin:round;stroke-miterlimit:4;stroke-dasharray:none;stroke-dashoffset:0;stroke-opacity:1" />
      <path
         transform="matrix(-0.62718936,0.77886681,-0.7508199,-0.66050698,0,0)"
         sodipodi:open="true"
         d="m 775.68073,-666.34993 a 8.8111153,8.7449093 0 0 1 5.45201,9.81652 8.8111153,8.7449093 0 0 1 -8.75869,7.07654"
         sodipodi:end="1.5832002"
         sodipodi:start="5.0837471"
         sodipodi:ry="8.7449093"
         sodipodi:rx="8.8111153"
         sodipodi:cy="-658.20111"
         sodipodi:cx="772.48334"
         sodipodi:type="arc"
         id="path4140-3-2-5-3"
         style="opacity:1;fill:#ffffff;fill-opacity:1;stroke:#000000;stroke-width:1.00047445;stroke-linecap:round;stroke-linejoin:round;stroke-miterlimit:4;stroke-dasharray:none;stroke-dashoffset:0;stroke-opacity:1" />
      <path
         transform="matrix(-0.55549838,-0.83151762,0.80775512,-0.58951816,0,0)"
         sodipodi:open="true"
         d="m -841.10783,-571.84301 a 8.8446312,8.7110081 0 0 1 9.40736,0.48445 8.8446312,8.7110081 0 0 1 3.62814,8.56216 8.8446312,8.7110081 0 0 1 -6.2668,6.92706"
         sodipodi:end="1.289425"
         sodipodi:start="4.2030321"
         sodipodi:ry="8.7110081"
         sodipodi:rx="8.8446312"
         sodipodi:cy="-564.23779"
         sodipodi:cx="-836.79504"
         sodipodi:type="arc"
         id="path4140"
         style="opacity:1;fill:#ffffff;fill-opacity:1;stroke:#000000;stroke-width:1.00043058;stroke-linecap:round;stroke-linejoin:round;stroke-miterlimit:4;stroke-dasharray:none;stroke-dashoffset:0;stroke-opacity:1" />
    </g>
  </g>
</svg>
